<?xml version="1.0" encoding="UTF-8"?>
<!DOCTYPE svg PUBLIC "-//W3C//DTD SVG 1.1//EN" "http://www.w3.org/Graphics/SVG/1.1/DTD/svg11.dtd">
<!-- Creator: CorelDRAW 2017 -->
<svg xmlns="http://www.w3.org/2000/svg" xml:space="preserve" width="200px" height="200px" version="1.1" style="shape-rendering:geometricPrecision; text-rendering:geometricPrecision; image-rendering:optimizeQuality; fill-rule:evenodd; clip-rule:evenodd"
viewBox="0 0 200 200"
 xmlns:xlink="http://www.w3.org/1999/xlink">
 <defs>
  <style type="text/css">
   <![CDATA[
    .fil1 {fill:#00A0E3}
    .fil3 {fill:#00A0E3}
    .fil0 {fill:#E5097F}
    .fil2 {fill:white}
   ]]>
  </style>
 </defs>
 <g id="Слой_x0020_1">
  <metadata id="CorelCorpID_0Corel-Layer"/>
  <rect class="fil0" width="100" height="200"/>
  <rect class="fil1" x="100" width="100" height="200"/>
  <path class="fil2" d="M100.02 3.15c53.48,0 96.85,43.36 96.85,96.85 0,53.47 -43.37,96.84 -96.85,96.84 -53.49,0 -96.86,-43.37 -96.86,-96.84 0,-53.49 43.37,-96.85 96.86,-96.85z"/>
  <path class="fil0" d="M100.01 24.48c41.7,0 75.52,33.82 75.52,75.52 0,41.7 -33.82,75.52 -75.52,75.52 -41.71,0 -75.53,-33.82 -75.53,-75.52 0,-41.7 33.82,-75.52 75.53,-75.52z"/>
  <path class="fil3" d="M100.02 24.48l0 151.04c-41.71,-0.03 -75.51,-33.83 -75.51,-75.5 0,-41.72 33.8,-75.51 75.51,-75.54z"/>
 </g>
</svg>
